# xmcd
#
# Track frame offsets:
#	150
#	15995
#	32182
#	48890
#	67720
#	84274
#	99265
#	115303
#	132360
#	149318
#	164790
#	181316
#	198017
#	213769
#	231922
#	248831
#	263170
#
# Disc length: 3717 seconds
#
# Revision: 2
# Processed by: cddbd v1.5.2PL0 Copyright (c) Steve Scherf et al.
# Submitted via: EZCDAudioConverter 7.1.5.1
#
DISCID=db0e8311
DTITLE=Florida Georgia Line - Here's To The Good Times... This Is How We Roll
DYEAR=2012
DGENRE=Country
TTITLE0=Cruise
TTITLE1=Round Here
TTITLE2=Get Your Shine On
TTITLE3=Here's To The Good Times
TTITLE4=It'z Just What We Do
TTITLE5=Stay
TTITLE6=Hell Raisin' Heat Of The Summer
TTITLE7=Tell Me How You Like It
TTITLE8=Tip It Back
TTITLE9=Dayum, Baby
TTITLE10=Party People
TTITLE11=This Is How We Roll  (Bonus Track)
TTITLE12=Take It Out On Me  (Bonus Track)
TTITLE13=People Back Home  (Bonus Track)
TTITLE14=Headphones  (Bonus Track)
TTITLE15=Hands On You  (Bonus Track)
TTITLE16=Cruise  (Remix Bonus Track)
EXTD=
EXTT0=
EXTT1=
EXTT2=
EXTT3=
EXTT4=
EXTT5=
EXTT6=
EXTT7=
EXTT8=
EXTT9=
EXTT10=
EXTT11=
EXTT12=
EXTT13=
EXTT14=
EXTT15=
EXTT16=
PLAYORDER=
